<?xml version="1.0" standalone="no"?>
<!DOCTYPE svg PUBLIC "-//W3C//DTD SVG 20010904//EN"
 "http://www.w3.org/TR/2001/REC-SVG-20010904/DTD/svg10.dtd">
<svg version="1.0" xmlns="http://www.w3.org/2000/svg"
 width="528.000000pt" height="528.000000pt" viewBox="0 0 528.000000 528.000000"
 preserveAspectRatio="xMidYMid meet">
<metadata>
Created by potrace 1.14, written by Peter Selinger 2001-2017
</metadata>
<g transform="translate(0.000000,528.000000) scale(0.100000,-0.100000)"
fill="#000000" stroke="none">
<path d="M770 3784 c-73 -22 -218 -86 -285 -127 -79 -47 -221 -182 -279 -265
-40 -58 -129 -225 -138 -260 -8 -29 -9 -31 -25 -69 -7 -18 -11 -33 -8 -33 2 0
0 -12 -6 -27 -6 -16 -13 -37 -17 -48 -3 -11 -7 -144 -8 -296 -2 -249 -1 -284
17 -350 11 -41 22 -84 25 -97 18 -84 121 -291 179 -359 30 -35 35 -43 35 -48
0 -8 154 -155 163 -155 4 0 18 -9 30 -21 58 -55 283 -141 402 -154 127 -14
451 -10 461 6 2 5 10 6 17 3 7 -2 38 4 70 15 31 11 57 18 57 16 0 -8 147 69
203 107 64 44 197 168 197 184 0 5 9 16 20 24 11 8 20 17 20 21 0 4 15 31 33
62 95 156 113 362 38 437 -63 64 -152 84 -228 50 -50 -22 -65 -44 -146 -210
-51 -105 -78 -149 -124 -196 -78 -82 -141 -116 -278 -151 -11 -3 -63 -7 -115
-9 -96 -3 -204 15 -276 47 -116 51 -246 208 -289 349 -45 146 -50 187 -48 405
0 181 3 201 38 356 11 52 81 192 118 237 33 41 128 132 137 132 5 0 15 6 22
13 7 8 45 27 83 42 65 27 80 29 205 30 153 0 209 -13 295 -71 78 -51 184 -161
185 -191 0 -6 4 -13 8 -15 5 -1 29 -34 53 -73 53 -81 103 -136 140 -152 14 -6
48 -10 75 -9 118 7 195 94 190 215 -2 60 -25 151 -38 151 -4 0 -8 7 -8 15 0 8
-17 40 -38 72 -127 196 -323 335 -568 401 -59 17 -106 20 -290 21 -207 0 -224
-1 -304 -25z"/>
<path d="M2557 3787 c-45 -14 -103 -68 -123 -115 -15 -37 -11 -155 6 -160 6
-2 10 -9 10 -16 0 -16 58 -70 95 -89 31 -15 112 -17 155 -3 43 14 79 46 106
91 51 89 45 169 -20 237 -60 64 -138 83 -229 55z"/>
<path d="M3473 3768 c-24 -5 -43 -13 -43 -19 0 -5 -5 -9 -11 -9 -14 0 -56 -46
-73 -80 -7 -14 -14 -59 -16 -100 -6 -131 -4 -1853 2 -1892 7 -47 54 -112 98
-136 43 -24 53 -25 590 -24 436 0 471 2 555 26 6 2 24 6 40 11 49 13 176 75
235 115 111 75 225 210 294 347 27 54 82 211 91 260 2 15 7 39 10 53 27 121
27 531 0 650 -3 14 -8 36 -11 50 -16 80 -99 277 -144 340 -11 15 -20 33 -20
38 0 6 -3 12 -7 14 -5 2 -33 32 -63 68 -30 36 -68 76 -84 89 -15 14 -33 30
-40 36 -54 51 -196 118 -315 147 -81 20 -113 21 -566 23 -264 1 -499 -3 -522
-7z m827 -364 c231 -22 397 -165 459 -394 29 -108 39 -214 36 -390 -3 -169 -8
-207 -36 -320 -28 -110 -81 -211 -152 -286 -113 -122 -163 -134 -544 -141
l-283 -6 0 778 0 777 233 -6 c127 -4 257 -9 287 -12z"/>
<path d="M2557 3176 c-34 -13 -75 -48 -117 -102 -12 -15 -16 -56 -18 -179 -6
-242 -5 -886 0 -1102 5 -190 6 -191 34 -234 16 -23 38 -47 49 -53 10 -6 25
-17 33 -24 7 -6 21 -12 30 -13 9 0 26 -2 37 -5 50 -11 107 7 151 48 87 80 83
35 82 820 0 760 3 722 -61 788 -62 64 -141 84 -220 56z"/>
</g>
</svg>
